<mxfile host="Electron" modified="2024-01-16T11:58:13.262Z" agent="Mozilla/5.0 (X11; Linux x86_64) AppleWebKit/537.36 (KHTML, like Gecko) draw.io/22.1.2 Chrome/114.0.5735.289 Electron/25.9.4 Safari/537.36" etag="ujJ6NpwDcvKRHQBo1q5j" version="22.1.2" type="device" pages="2">
  <diagram name="Page-1" id="6XNmqfMBiI2EiIZUTCKr">
    <mxGraphModel dx="1434" dy="842" grid="1" gridSize="10" guides="1" tooltips="1" connect="1" arrows="1" fold="1" page="1" pageScale="1" pageWidth="850" pageHeight="1100" math="0" shadow="0">
      <root>
        <mxCell id="0" />
        <mxCell id="1" parent="0" />
        <mxCell id="Pj9AIgrMs4LZQuUBmJ1u-5" value="Citus Coordinator" style="rounded=1;whiteSpace=wrap;html=1;verticalAlign=top;fontSize=20;fillColor=#f5f5f5;fontColor=#333333;strokeColor=#666666;" parent="1" vertex="1">
          <mxGeometry x="120" y="130" width="200" height="220" as="geometry" />
        </mxCell>
        <mxCell id="Pj9AIgrMs4LZQuUBmJ1u-3" style="edgeStyle=orthogonalEdgeStyle;rounded=0;orthogonalLoop=1;jettySize=auto;html=1;" parent="1" source="Pj9AIgrMs4LZQuUBmJ1u-8" target="Pj9AIgrMs4LZQuUBmJ1u-2" edge="1">
          <mxGeometry relative="1" as="geometry">
            <Array as="points">
              <mxPoint x="340" y="300" />
              <mxPoint x="340" y="300" />
            </Array>
          </mxGeometry>
        </mxCell>
        <mxCell id="Pj9AIgrMs4LZQuUBmJ1u-4" value="psql" style="edgeLabel;html=1;align=center;verticalAlign=middle;resizable=0;points=[];fontSize=16;" parent="Pj9AIgrMs4LZQuUBmJ1u-3" vertex="1" connectable="0">
          <mxGeometry x="0.3125" y="-2" relative="1" as="geometry">
            <mxPoint x="-31" y="8" as="offset" />
          </mxGeometry>
        </mxCell>
        <mxCell id="Pj9AIgrMs4LZQuUBmJ1u-1" value="Finance" style="strokeWidth=2;html=1;shape=mxgraph.flowchart.database;whiteSpace=wrap;fillColor=#ffe6cc;strokeColor=#d79b00;" parent="1" vertex="1">
          <mxGeometry x="182.5" y="180" width="70" height="80" as="geometry" />
        </mxCell>
        <mxCell id="Pj9AIgrMs4LZQuUBmJ1u-6" style="edgeStyle=orthogonalEdgeStyle;rounded=0;orthogonalLoop=1;jettySize=auto;html=1;startArrow=classic;startFill=1;endArrow=none;endFill=0;" parent="1" source="Pj9AIgrMs4LZQuUBmJ1u-2" target="Pj9AIgrMs4LZQuUBmJ1u-1" edge="1">
          <mxGeometry relative="1" as="geometry">
            <Array as="points">
              <mxPoint x="410" y="210" />
              <mxPoint x="410" y="210" />
            </Array>
          </mxGeometry>
        </mxCell>
        <mxCell id="Pj9AIgrMs4LZQuUBmJ1u-7" value="postgres_fdw" style="edgeLabel;html=1;align=center;verticalAlign=middle;resizable=0;points=[];fontSize=16;" parent="Pj9AIgrMs4LZQuUBmJ1u-6" vertex="1" connectable="0">
          <mxGeometry x="-0.2923" y="-3" relative="1" as="geometry">
            <mxPoint y="13" as="offset" />
          </mxGeometry>
        </mxCell>
        <mxCell id="Pj9AIgrMs4LZQuUBmJ1u-2" value="PostgreSQL&lt;br&gt;(cold storage)" style="strokeWidth=2;html=1;shape=mxgraph.flowchart.database;whiteSpace=wrap;fontSize=20;fillColor=#dae8fc;strokeColor=#6c8ebf;" parent="1" vertex="1">
          <mxGeometry x="450" y="150" width="190" height="200" as="geometry" />
        </mxCell>
        <mxCell id="Pj9AIgrMs4LZQuUBmJ1u-8" value="" style="image;aspect=fixed;html=1;points=[];align=center;fontSize=12;image=img/lib/azure2/general/Dev_Console.svg;" parent="1" vertex="1">
          <mxGeometry x="185" y="280" width="65" height="52" as="geometry" />
        </mxCell>
      </root>
    </mxGraphModel>
  </diagram>
  <diagram id="iPs5flNVO_Cz_onpEL-i" name="Page-2">
    <mxGraphModel dx="1434" dy="842" grid="1" gridSize="10" guides="1" tooltips="1" connect="1" arrows="1" fold="1" page="1" pageScale="1" pageWidth="850" pageHeight="1100" math="0" shadow="0">
      <root>
        <mxCell id="0" />
        <mxCell id="1" parent="0" />
        <mxCell id="QGom2XaNp7fpjN5aCH-f-1" value="Cold storage" style="rounded=1;whiteSpace=wrap;html=1;verticalAlign=top;fontSize=20;fillColor=#dae8fc;strokeColor=#6c8ebf;" vertex="1" parent="1">
          <mxGeometry x="70" y="80" width="430" height="160" as="geometry" />
        </mxCell>
        <mxCell id="QGom2XaNp7fpjN5aCH-f-2" style="edgeStyle=orthogonalEdgeStyle;rounded=0;orthogonalLoop=1;jettySize=auto;html=1;" edge="1" parent="1" source="QGom2XaNp7fpjN5aCH-f-4" target="QGom2XaNp7fpjN5aCH-f-6">
          <mxGeometry relative="1" as="geometry" />
        </mxCell>
        <mxCell id="QGom2XaNp7fpjN5aCH-f-3" value="INSERT SELECT" style="edgeLabel;html=1;align=center;verticalAlign=middle;resizable=0;points=[];labelBackgroundColor=none;fontSize=14;" vertex="1" connectable="0" parent="QGom2XaNp7fpjN5aCH-f-2">
          <mxGeometry x="0.3067" y="-4" relative="1" as="geometry">
            <mxPoint x="-18" y="-24" as="offset" />
          </mxGeometry>
        </mxCell>
        <mxCell id="QGom2XaNp7fpjN5aCH-f-4" value="public.&lt;br&gt;citus_acc_data" style="swimlane;childLayout=stackLayout;horizontal=1;startSize=50;horizontalStack=0;rounded=1;fontSize=14;fontStyle=0;strokeWidth=2;resizeParent=0;resizeLast=1;shadow=0;dashed=0;align=center;arcSize=4;whiteSpace=wrap;html=1;" vertex="1" parent="1">
          <mxGeometry x="90" y="140" width="120" height="80" as="geometry" />
        </mxCell>
        <mxCell id="QGom2XaNp7fpjN5aCH-f-5" value="Foreign table" style="align=left;strokeColor=none;fillColor=none;spacingLeft=4;fontSize=12;verticalAlign=top;resizable=0;rotatable=0;part=1;html=1;" vertex="1" parent="QGom2XaNp7fpjN5aCH-f-4">
          <mxGeometry y="50" width="120" height="30" as="geometry" />
        </mxCell>
        <mxCell id="QGom2XaNp7fpjN5aCH-f-6" value="archdata.&lt;br&gt;acc_data" style="swimlane;childLayout=stackLayout;horizontal=1;startSize=50;horizontalStack=0;rounded=1;fontSize=14;fontStyle=0;strokeWidth=2;resizeParent=0;resizeLast=1;shadow=0;dashed=0;align=center;arcSize=4;whiteSpace=wrap;html=1;" vertex="1" parent="1">
          <mxGeometry x="360" y="140" width="120" height="80" as="geometry" />
        </mxCell>
        <mxCell id="QGom2XaNp7fpjN5aCH-f-7" value="Local table" style="align=left;strokeColor=none;fillColor=none;spacingLeft=4;fontSize=12;verticalAlign=top;resizable=0;rotatable=0;part=1;html=1;" vertex="1" parent="QGom2XaNp7fpjN5aCH-f-6">
          <mxGeometry y="50" width="120" height="30" as="geometry" />
        </mxCell>
      </root>
    </mxGraphModel>
  </diagram>
</mxfile>
